<mxfile host="app.diagrams.net" agent="Mozilla/5.0 (X11; Linux x86_64) AppleWebKit/537.36 (KHTML, like Gecko) Chrome/130.0.0.0 Safari/537.36" version="24.8.4">
  <diagram name="Page-1" id="5LU7Rp1ZNXdT5xKRHXcr">
    <mxGraphModel dx="2643" dy="891" grid="1" gridSize="10" guides="1" tooltips="1" connect="1" arrows="1" fold="1" page="1" pageScale="1" pageWidth="850" pageHeight="1100" math="0" shadow="0">
      <root>
        <mxCell id="0" />
        <mxCell id="1" parent="0" />
        <mxCell id="5OAMmtJjM21bAXwRtnvp-2" value="" style="rounded=0;whiteSpace=wrap;html=1;" parent="1" vertex="1">
          <mxGeometry x="360" y="170" width="280" height="160" as="geometry" />
        </mxCell>
        <mxCell id="5OAMmtJjM21bAXwRtnvp-3" value="" style="endArrow=classic;html=1;rounded=0;" parent="1" edge="1">
          <mxGeometry width="50" height="50" relative="1" as="geometry">
            <mxPoint x="160" y="249.5" as="sourcePoint" />
            <mxPoint x="360" y="249.5" as="targetPoint" />
          </mxGeometry>
        </mxCell>
        <mxCell id="5OAMmtJjM21bAXwRtnvp-4" value="" style="endArrow=classic;html=1;rounded=0;" parent="1" edge="1">
          <mxGeometry width="50" height="50" relative="1" as="geometry">
            <mxPoint x="160" y="290" as="sourcePoint" />
            <mxPoint x="360" y="290" as="targetPoint" />
          </mxGeometry>
        </mxCell>
        <mxCell id="5OAMmtJjM21bAXwRtnvp-5" value="" style="endArrow=classic;html=1;rounded=0;" parent="1" edge="1">
          <mxGeometry width="50" height="50" relative="1" as="geometry">
            <mxPoint x="160" y="210" as="sourcePoint" />
            <mxPoint x="360" y="210" as="targetPoint" />
          </mxGeometry>
        </mxCell>
        <mxCell id="5OAMmtJjM21bAXwRtnvp-6" value="" style="endArrow=classic;html=1;rounded=0;" parent="1" edge="1">
          <mxGeometry width="50" height="50" relative="1" as="geometry">
            <mxPoint x="640" y="249.5" as="sourcePoint" />
            <mxPoint x="840" y="249.5" as="targetPoint" />
          </mxGeometry>
        </mxCell>
        <mxCell id="5OAMmtJjM21bAXwRtnvp-12" style="edgeStyle=orthogonalEdgeStyle;rounded=0;orthogonalLoop=1;jettySize=auto;html=1;" parent="1" edge="1">
          <mxGeometry relative="1" as="geometry">
            <mxPoint x="335" y="560" as="sourcePoint" />
            <mxPoint x="405" y="560" as="targetPoint" />
          </mxGeometry>
        </mxCell>
        <mxCell id="5OAMmtJjM21bAXwRtnvp-7" value="Device" style="rounded=0;whiteSpace=wrap;html=1;" parent="1" vertex="1">
          <mxGeometry x="155" y="530" width="180" height="100" as="geometry" />
        </mxCell>
        <mxCell id="5OAMmtJjM21bAXwRtnvp-14" style="edgeStyle=orthogonalEdgeStyle;rounded=0;orthogonalLoop=1;jettySize=auto;html=1;entryX=0;entryY=0.5;entryDx=0;entryDy=0;" parent="1" edge="1">
          <mxGeometry relative="1" as="geometry">
            <mxPoint x="585" y="560" as="sourcePoint" />
            <mxPoint x="660" y="560" as="targetPoint" />
          </mxGeometry>
        </mxCell>
        <mxCell id="5OAMmtJjM21bAXwRtnvp-8" value="Network" style="rounded=0;whiteSpace=wrap;html=1;" parent="1" vertex="1">
          <mxGeometry x="405" y="530" width="180" height="100" as="geometry" />
        </mxCell>
        <mxCell id="5OAMmtJjM21bAXwRtnvp-33" style="edgeStyle=orthogonalEdgeStyle;rounded=0;orthogonalLoop=1;jettySize=auto;html=1;entryX=0.5;entryY=1;entryDx=0;entryDy=0;" parent="1" source="5OAMmtJjM21bAXwRtnvp-13" target="5OAMmtJjM21bAXwRtnvp-7" edge="1">
          <mxGeometry relative="1" as="geometry">
            <Array as="points">
              <mxPoint x="750" y="650" />
              <mxPoint x="245" y="650" />
            </Array>
          </mxGeometry>
        </mxCell>
        <mxCell id="5OAMmtJjM21bAXwRtnvp-57" style="edgeStyle=orthogonalEdgeStyle;rounded=0;orthogonalLoop=1;jettySize=auto;html=1;entryX=1;entryY=0.5;entryDx=0;entryDy=0;" parent="1" source="5OAMmtJjM21bAXwRtnvp-13" target="5OAMmtJjM21bAXwRtnvp-8" edge="1">
          <mxGeometry relative="1" as="geometry" />
        </mxCell>
        <mxCell id="5OAMmtJjM21bAXwRtnvp-13" value="Software" style="rounded=0;whiteSpace=wrap;html=1;" parent="1" vertex="1">
          <mxGeometry x="660" y="530" width="180" height="100" as="geometry" />
        </mxCell>
        <mxCell id="5OAMmtJjM21bAXwRtnvp-16" style="edgeStyle=orthogonalEdgeStyle;rounded=0;orthogonalLoop=1;jettySize=auto;html=1;" parent="1" edge="1">
          <mxGeometry relative="1" as="geometry">
            <mxPoint x="85" y="579.8" as="sourcePoint" />
            <mxPoint x="155" y="579.8" as="targetPoint" />
          </mxGeometry>
        </mxCell>
        <mxCell id="5OAMmtJjM21bAXwRtnvp-18" style="edgeStyle=orthogonalEdgeStyle;rounded=0;orthogonalLoop=1;jettySize=auto;html=1;entryX=0;entryY=0.5;entryDx=0;entryDy=0;" parent="1" edge="1">
          <mxGeometry relative="1" as="geometry">
            <mxPoint x="840" y="579.8" as="sourcePoint" />
            <mxPoint x="915" y="579.8" as="targetPoint" />
          </mxGeometry>
        </mxCell>
        <mxCell id="5OAMmtJjM21bAXwRtnvp-23" value="BLE" style="text;html=1;align=center;verticalAlign=middle;resizable=0;points=[];autosize=1;strokeColor=none;fillColor=none;" parent="1" vertex="1">
          <mxGeometry x="345" y="535" width="50" height="30" as="geometry" />
        </mxCell>
        <mxCell id="5OAMmtJjM21bAXwRtnvp-24" value="HTTP" style="text;html=1;align=center;verticalAlign=middle;resizable=0;points=[];autosize=1;strokeColor=none;fillColor=none;" parent="1" vertex="1">
          <mxGeometry x="585" y="538" width="50" height="30" as="geometry" />
        </mxCell>
        <mxCell id="5OAMmtJjM21bAXwRtnvp-25" value="BLE" style="text;html=1;align=center;verticalAlign=middle;resizable=0;points=[];autosize=1;strokeColor=none;fillColor=none;" parent="1" vertex="1">
          <mxGeometry x="470" y="660" width="50" height="30" as="geometry" />
        </mxCell>
        <mxCell id="5OAMmtJjM21bAXwRtnvp-30" value="" style="edgeStyle=orthogonalEdgeStyle;rounded=0;orthogonalLoop=1;jettySize=auto;html=1;" parent="1" edge="1">
          <mxGeometry relative="1" as="geometry">
            <mxPoint x="-255" y="1038.75" as="sourcePoint" />
            <mxPoint x="-255" y="1098.75" as="targetPoint" />
          </mxGeometry>
        </mxCell>
        <mxCell id="5OAMmtJjM21bAXwRtnvp-27" value="Hardware" style="rounded=0;whiteSpace=wrap;html=1;fontSize=16;" parent="1" vertex="1">
          <mxGeometry x="-305" y="938.75" width="180" height="100" as="geometry" />
        </mxCell>
        <mxCell id="5OAMmtJjM21bAXwRtnvp-31" value="" style="edgeStyle=orthogonalEdgeStyle;rounded=0;orthogonalLoop=1;jettySize=auto;html=1;" parent="1" edge="1">
          <mxGeometry relative="1" as="geometry">
            <mxPoint x="-175" y="1098.75" as="sourcePoint" />
            <mxPoint x="-175" y="1038.75" as="targetPoint" />
          </mxGeometry>
        </mxCell>
        <mxCell id="5OAMmtJjM21bAXwRtnvp-28" value="Firmware" style="rounded=0;whiteSpace=wrap;html=1;fontSize=16;" parent="1" vertex="1">
          <mxGeometry x="-305" y="1098.75" width="180" height="100" as="geometry" />
        </mxCell>
        <mxCell id="5OAMmtJjM21bAXwRtnvp-29" style="edgeStyle=orthogonalEdgeStyle;rounded=0;orthogonalLoop=1;jettySize=auto;html=1;" parent="1" edge="1">
          <mxGeometry relative="1" as="geometry">
            <mxPoint x="-375" y="998.75" as="sourcePoint" />
            <mxPoint x="-305" y="998.75" as="targetPoint" />
          </mxGeometry>
        </mxCell>
        <mxCell id="5OAMmtJjM21bAXwRtnvp-32" value="Apple Server" style="rounded=0;whiteSpace=wrap;html=1;fontSize=16;" parent="1" vertex="1">
          <mxGeometry x="434" y="1020" width="180" height="100" as="geometry" />
        </mxCell>
        <mxCell id="5OAMmtJjM21bAXwRtnvp-35" style="edgeStyle=orthogonalEdgeStyle;rounded=0;orthogonalLoop=1;jettySize=auto;html=1;entryX=0;entryY=0.5;entryDx=0;entryDy=0;" parent="1" source="5OAMmtJjM21bAXwRtnvp-34" target="5OAMmtJjM21bAXwRtnvp-32" edge="1">
          <mxGeometry relative="1" as="geometry" />
        </mxCell>
        <mxCell id="5OAMmtJjM21bAXwRtnvp-34" value="Apple Device" style="rounded=0;whiteSpace=wrap;html=1;fontSize=16;" parent="1" vertex="1">
          <mxGeometry x="179" y="1020" width="180" height="100" as="geometry" />
        </mxCell>
        <mxCell id="5OAMmtJjM21bAXwRtnvp-36" value="HTTP" style="text;html=1;align=center;verticalAlign=middle;resizable=0;points=[];autosize=1;strokeColor=none;fillColor=none;" parent="1" vertex="1">
          <mxGeometry x="369" y="1030" width="50" height="30" as="geometry" />
        </mxCell>
        <mxCell id="5OAMmtJjM21bAXwRtnvp-40" style="edgeStyle=orthogonalEdgeStyle;rounded=0;orthogonalLoop=1;jettySize=auto;html=1;" parent="1" edge="1">
          <mxGeometry relative="1" as="geometry">
            <mxPoint x="-375" y="1148.38" as="sourcePoint" />
            <mxPoint x="-305" y="1148.38" as="targetPoint" />
          </mxGeometry>
        </mxCell>
        <mxCell id="5OAMmtJjM21bAXwRtnvp-41" value="Mobile application" style="rounded=0;whiteSpace=wrap;html=1;fontSize=16;" parent="1" vertex="1">
          <mxGeometry x="1125" y="1100" width="180" height="100" as="geometry" />
        </mxCell>
        <mxCell id="5OAMmtJjM21bAXwRtnvp-42" value="Web application&lt;div style=&quot;font-size: 16px;&quot;&gt;(developer)&lt;/div&gt;" style="rounded=0;whiteSpace=wrap;html=1;fontSize=16;" parent="1" vertex="1">
          <mxGeometry x="1125" y="940" width="180" height="98.75" as="geometry" />
        </mxCell>
        <mxCell id="5OAMmtJjM21bAXwRtnvp-49" value="Private Server" style="rounded=0;whiteSpace=wrap;html=1;fontSize=16;" parent="1" vertex="1">
          <mxGeometry x="674" y="1020" width="180" height="100" as="geometry" />
        </mxCell>
        <mxCell id="5OAMmtJjM21bAXwRtnvp-55" style="edgeStyle=orthogonalEdgeStyle;rounded=0;orthogonalLoop=1;jettySize=auto;html=1;" parent="1" edge="1">
          <mxGeometry relative="1" as="geometry">
            <mxPoint x="1305" y="988.57" as="sourcePoint" />
            <mxPoint x="1375" y="988.57" as="targetPoint" />
          </mxGeometry>
        </mxCell>
        <mxCell id="5OAMmtJjM21bAXwRtnvp-56" style="edgeStyle=orthogonalEdgeStyle;rounded=0;orthogonalLoop=1;jettySize=auto;html=1;" parent="1" edge="1">
          <mxGeometry relative="1" as="geometry">
            <mxPoint x="1305" y="1149.82" as="sourcePoint" />
            <mxPoint x="1375" y="1149.82" as="targetPoint" />
          </mxGeometry>
        </mxCell>
        <mxCell id="5OAMmtJjM21bAXwRtnvp-58" value="HTTP" style="text;html=1;align=center;verticalAlign=middle;resizable=0;points=[];autosize=1;strokeColor=none;fillColor=none;" parent="1" vertex="1">
          <mxGeometry x="600" y="580" width="50" height="30" as="geometry" />
        </mxCell>
        <mxCell id="5OAMmtJjM21bAXwRtnvp-59" style="edgeStyle=orthogonalEdgeStyle;rounded=0;orthogonalLoop=1;jettySize=auto;html=1;entryX=0.003;entryY=0.498;entryDx=0;entryDy=0;entryPerimeter=0;" parent="1" source="5OAMmtJjM21bAXwRtnvp-32" target="5OAMmtJjM21bAXwRtnvp-49" edge="1">
          <mxGeometry relative="1" as="geometry">
            <Array as="points" />
          </mxGeometry>
        </mxCell>
        <mxCell id="5OAMmtJjM21bAXwRtnvp-60" value="HTTP" style="text;html=1;align=center;verticalAlign=middle;resizable=0;points=[];autosize=1;strokeColor=none;fillColor=none;" parent="1" vertex="1">
          <mxGeometry x="614" y="1030" width="50" height="30" as="geometry" />
        </mxCell>
        <mxCell id="5OAMmtJjM21bAXwRtnvp-61" style="edgeStyle=orthogonalEdgeStyle;rounded=0;orthogonalLoop=1;jettySize=auto;html=1;" parent="1" edge="1">
          <mxGeometry relative="1" as="geometry">
            <mxPoint x="-125" y="998.75" as="sourcePoint" />
            <mxPoint x="-55" y="998.75" as="targetPoint" />
          </mxGeometry>
        </mxCell>
        <mxCell id="5OAMmtJjM21bAXwRtnvp-63" style="edgeStyle=orthogonalEdgeStyle;rounded=0;orthogonalLoop=1;jettySize=auto;html=1;entryX=0;entryY=0.5;entryDx=0;entryDy=0;" parent="1" edge="1">
          <mxGeometry relative="1" as="geometry">
            <mxPoint x="104" y="1070" as="sourcePoint" />
            <mxPoint x="179" y="1070" as="targetPoint" />
          </mxGeometry>
        </mxCell>
        <mxCell id="5OAMmtJjM21bAXwRtnvp-65" style="edgeStyle=orthogonalEdgeStyle;rounded=0;orthogonalLoop=1;jettySize=auto;html=1;" parent="1" edge="1">
          <mxGeometry relative="1" as="geometry">
            <mxPoint x="1055" y="988.5700000000002" as="sourcePoint" />
            <mxPoint x="1125" y="988.5700000000002" as="targetPoint" />
          </mxGeometry>
        </mxCell>
        <mxCell id="5OAMmtJjM21bAXwRtnvp-66" style="edgeStyle=orthogonalEdgeStyle;rounded=0;orthogonalLoop=1;jettySize=auto;html=1;" parent="1" edge="1">
          <mxGeometry relative="1" as="geometry">
            <mxPoint x="1055" y="1130.0000000000002" as="sourcePoint" />
            <mxPoint x="1125" y="1130.0000000000002" as="targetPoint" />
          </mxGeometry>
        </mxCell>
        <mxCell id="5OAMmtJjM21bAXwRtnvp-67" value="" style="endArrow=classic;html=1;rounded=0;" parent="1" edge="1">
          <mxGeometry width="50" height="50" relative="1" as="geometry">
            <mxPoint x="-55" y="1158.75" as="sourcePoint" />
            <mxPoint x="-125" y="1158.75" as="targetPoint" />
          </mxGeometry>
        </mxCell>
        <mxCell id="b0lqk5REmzzPsrrRy35X-2" value="Level 0" style="text;html=1;align=center;verticalAlign=middle;whiteSpace=wrap;rounded=0;fontSize=30;fontStyle=1" parent="1" vertex="1">
          <mxGeometry x="155" y="140" width="105" height="30" as="geometry" />
        </mxCell>
        <mxCell id="b0lqk5REmzzPsrrRy35X-5" value="Level 1" style="text;html=1;align=center;verticalAlign=middle;whiteSpace=wrap;rounded=0;fontSize=30;fontStyle=1" parent="1" vertex="1">
          <mxGeometry x="80" y="470" width="105" height="30" as="geometry" />
        </mxCell>
        <mxCell id="b0lqk5REmzzPsrrRy35X-10" value="Level 2" style="text;html=1;align=center;verticalAlign=middle;whiteSpace=wrap;rounded=0;fontSize=30;fontStyle=1" parent="1" vertex="1">
          <mxGeometry x="-435" y="840" width="105" height="30" as="geometry" />
        </mxCell>
        <mxCell id="b0lqk5REmzzPsrrRy35X-11" value="" style="endArrow=classic;html=1;rounded=0;exitX=1.003;exitY=0.378;exitDx=0;exitDy=0;exitPerimeter=0;entryX=0.697;entryY=0.479;entryDx=0;entryDy=0;entryPerimeter=0;" parent="1" edge="1">
          <mxGeometry width="50" height="50" relative="1" as="geometry">
            <mxPoint x="854" y="1050" as="sourcePoint" />
            <mxPoint x="890.4299999999998" y="1050.135" as="targetPoint" />
          </mxGeometry>
        </mxCell>
        <mxCell id="b0lqk5REmzzPsrrRy35X-13" value="Server application" style="rounded=0;whiteSpace=wrap;html=1;fontSize=16;" parent="1" vertex="1">
          <mxGeometry x="520" y="1650" width="200" height="100" as="geometry" />
        </mxCell>
        <mxCell id="b0lqk5REmzzPsrrRy35X-15" value="" style="edgeStyle=orthogonalEdgeStyle;rounded=0;orthogonalLoop=1;jettySize=auto;html=1;" parent="1" edge="1">
          <mxGeometry relative="1" as="geometry">
            <mxPoint x="660" y="1810" as="sourcePoint" />
            <mxPoint x="660" y="1750" as="targetPoint" />
          </mxGeometry>
        </mxCell>
        <mxCell id="b0lqk5REmzzPsrrRy35X-14" value="Database" style="rounded=0;whiteSpace=wrap;html=1;fontSize=16;" parent="1" vertex="1">
          <mxGeometry x="520" y="1810" width="200" height="100" as="geometry" />
        </mxCell>
        <mxCell id="b0lqk5REmzzPsrrRy35X-16" value="" style="edgeStyle=orthogonalEdgeStyle;rounded=0;orthogonalLoop=1;jettySize=auto;html=1;startArrow=classic;startFill=1;endArrow=none;endFill=0;" parent="1" edge="1">
          <mxGeometry relative="1" as="geometry">
            <mxPoint x="580" y="1810" as="sourcePoint" />
            <mxPoint x="580" y="1750" as="targetPoint" />
          </mxGeometry>
        </mxCell>
        <mxCell id="b0lqk5REmzzPsrrRy35X-20" value="" style="endArrow=classic;html=1;rounded=0;entryX=0;entryY=0.5;entryDx=0;entryDy=0;" parent="1" edge="1">
          <mxGeometry width="50" height="50" relative="1" as="geometry">
            <mxPoint x="440" y="1700" as="sourcePoint" />
            <mxPoint x="520" y="1699.8" as="targetPoint" />
            <Array as="points">
              <mxPoint x="460" y="1699.8" />
            </Array>
          </mxGeometry>
        </mxCell>
        <mxCell id="b0lqk5REmzzPsrrRy35X-21" value="" style="endArrow=classic;html=1;rounded=0;entryX=0;entryY=0.5;entryDx=0;entryDy=0;" parent="1" edge="1">
          <mxGeometry width="50" height="50" relative="1" as="geometry">
            <mxPoint x="720" y="1680" as="sourcePoint" />
            <mxPoint x="800" y="1680" as="targetPoint" />
          </mxGeometry>
        </mxCell>
        <mxCell id="oY7AbEXCepCv40pV6vN1-78" value="" style="endArrow=none;html=1;rounded=0;entryX=0;entryY=0.5;entryDx=0;entryDy=0;endFill=0;startArrow=classic;startFill=1;" parent="1" edge="1">
          <mxGeometry width="50" height="50" relative="1" as="geometry">
            <mxPoint x="720" y="1720" as="sourcePoint" />
            <mxPoint x="800" y="1720" as="targetPoint" />
          </mxGeometry>
        </mxCell>
        <mxCell id="oY7AbEXCepCv40pV6vN1-86" value="" style="endArrow=none;html=1;rounded=0;exitX=1.003;exitY=0.378;exitDx=0;exitDy=0;exitPerimeter=0;entryX=0.697;entryY=0.479;entryDx=0;entryDy=0;entryPerimeter=0;endFill=0;startArrow=classic;startFill=1;" parent="1" edge="1">
          <mxGeometry width="50" height="50" relative="1" as="geometry">
            <mxPoint x="854" y="1090" as="sourcePoint" />
            <mxPoint x="890.4299999999998" y="1090.135" as="targetPoint" />
          </mxGeometry>
        </mxCell>
        <mxCell id="oY7AbEXCepCv40pV6vN1-87" style="edgeStyle=orthogonalEdgeStyle;rounded=0;orthogonalLoop=1;jettySize=auto;html=1;endArrow=none;endFill=0;startArrow=classic;startFill=1;" parent="1" edge="1">
          <mxGeometry relative="1" as="geometry">
            <mxPoint x="1055" y="1170.0000000000002" as="sourcePoint" />
            <mxPoint x="1125" y="1170.0000000000002" as="targetPoint" />
          </mxGeometry>
        </mxCell>
        <mxCell id="oY7AbEXCepCv40pV6vN1-88" value="Request/Response&lt;div&gt;handler&lt;/div&gt;" style="rounded=0;whiteSpace=wrap;html=1;fontSize=16;" parent="1" vertex="1">
          <mxGeometry x="940" y="1650" width="200" height="100" as="geometry" />
        </mxCell>
        <mxCell id="oY7AbEXCepCv40pV6vN1-92" value="" style="endArrow=none;html=1;rounded=0;entryX=0;entryY=0.5;entryDx=0;entryDy=0;endFill=0;startArrow=classic;startFill=1;" parent="1" edge="1">
          <mxGeometry width="50" height="50" relative="1" as="geometry">
            <mxPoint x="860" y="1720.2" as="sourcePoint" />
            <mxPoint x="940" y="1720" as="targetPoint" />
            <Array as="points">
              <mxPoint x="880" y="1720" />
            </Array>
          </mxGeometry>
        </mxCell>
        <mxCell id="oY7AbEXCepCv40pV6vN1-93" value="" style="endArrow=classic;html=1;rounded=0;entryX=0;entryY=0.5;entryDx=0;entryDy=0;" parent="1" edge="1">
          <mxGeometry width="50" height="50" relative="1" as="geometry">
            <mxPoint x="1140" y="1680" as="sourcePoint" />
            <mxPoint x="1220" y="1680" as="targetPoint" />
          </mxGeometry>
        </mxCell>
        <mxCell id="oY7AbEXCepCv40pV6vN1-94" value="" style="endArrow=none;html=1;rounded=0;entryX=0;entryY=0.5;entryDx=0;entryDy=0;endFill=0;startArrow=classic;startFill=1;" parent="1" edge="1">
          <mxGeometry width="50" height="50" relative="1" as="geometry">
            <mxPoint x="1140" y="1720" as="sourcePoint" />
            <mxPoint x="1220" y="1720" as="targetPoint" />
          </mxGeometry>
        </mxCell>
        <mxCell id="oY7AbEXCepCv40pV6vN1-95" value="" style="endArrow=classic;html=1;rounded=0;entryX=0;entryY=0.5;entryDx=0;entryDy=0;endFill=1;startArrow=none;startFill=0;" parent="1" edge="1">
          <mxGeometry width="50" height="50" relative="1" as="geometry">
            <mxPoint x="860" y="1680.2" as="sourcePoint" />
            <mxPoint x="940" y="1680" as="targetPoint" />
            <Array as="points">
              <mxPoint x="880" y="1680" />
            </Array>
          </mxGeometry>
        </mxCell>
        <mxCell id="oY7AbEXCepCv40pV6vN1-105" value="" style="edgeStyle=orthogonalEdgeStyle;rounded=0;orthogonalLoop=1;jettySize=auto;html=1;" parent="1" source="oY7AbEXCepCv40pV6vN1-96" target="oY7AbEXCepCv40pV6vN1-104" edge="1">
          <mxGeometry relative="1" as="geometry" />
        </mxCell>
        <mxCell id="oY7AbEXCepCv40pV6vN1-106" value="" style="edgeStyle=orthogonalEdgeStyle;rounded=0;orthogonalLoop=1;jettySize=auto;html=1;" parent="1" edge="1">
          <mxGeometry relative="1" as="geometry">
            <mxPoint x="1420" y="1680" as="sourcePoint" />
            <mxPoint x="1500" y="1680" as="targetPoint" />
          </mxGeometry>
        </mxCell>
        <mxCell id="oY7AbEXCepCv40pV6vN1-96" value="Main Features" style="rounded=0;whiteSpace=wrap;html=1;fontSize=16;" parent="1" vertex="1">
          <mxGeometry x="1220" y="1650" width="200" height="100" as="geometry" />
        </mxCell>
        <mxCell id="oY7AbEXCepCv40pV6vN1-98" value="" style="edgeStyle=orthogonalEdgeStyle;rounded=0;orthogonalLoop=1;jettySize=auto;html=1;" parent="1" source="oY7AbEXCepCv40pV6vN1-97" target="oY7AbEXCepCv40pV6vN1-96" edge="1">
          <mxGeometry relative="1" as="geometry" />
        </mxCell>
        <mxCell id="oY7AbEXCepCv40pV6vN1-101" value="" style="edgeStyle=orthogonalEdgeStyle;rounded=0;orthogonalLoop=1;jettySize=auto;html=1;" parent="1" edge="1">
          <mxGeometry relative="1" as="geometry">
            <mxPoint x="1419.9999999999995" y="1520" as="sourcePoint" />
            <mxPoint x="1500.0000000000005" y="1520" as="targetPoint" />
          </mxGeometry>
        </mxCell>
        <mxCell id="oY7AbEXCepCv40pV6vN1-97" value="Login" style="rounded=0;whiteSpace=wrap;html=1;fontSize=16;" parent="1" vertex="1">
          <mxGeometry x="1220" y="1490" width="200" height="100" as="geometry" />
        </mxCell>
        <mxCell id="oY7AbEXCepCv40pV6vN1-99" value="" style="edgeStyle=orthogonalEdgeStyle;rounded=0;orthogonalLoop=1;jettySize=auto;html=1;" parent="1" edge="1">
          <mxGeometry relative="1" as="geometry">
            <mxPoint x="1319.86" y="1430" as="sourcePoint" />
            <mxPoint x="1319.86" y="1490" as="targetPoint" />
          </mxGeometry>
        </mxCell>
        <mxCell id="oY7AbEXCepCv40pV6vN1-100" value="Storage" style="rounded=0;whiteSpace=wrap;html=1;fontSize=16;" parent="1" vertex="1">
          <mxGeometry x="1500" y="1490" width="200" height="100" as="geometry" />
        </mxCell>
        <mxCell id="oY7AbEXCepCv40pV6vN1-102" value="" style="edgeStyle=orthogonalEdgeStyle;rounded=0;orthogonalLoop=1;jettySize=auto;html=1;endArrow=none;endFill=0;startArrow=classic;startFill=1;" parent="1" edge="1">
          <mxGeometry relative="1" as="geometry">
            <mxPoint x="1419.9999999999995" y="1560" as="sourcePoint" />
            <mxPoint x="1500.0000000000005" y="1560" as="targetPoint" />
          </mxGeometry>
        </mxCell>
        <mxCell id="oY7AbEXCepCv40pV6vN1-103" value="Screen" style="rounded=0;whiteSpace=wrap;html=1;fontSize=16;" parent="1" vertex="1">
          <mxGeometry x="1500" y="1650" width="200" height="100" as="geometry" />
        </mxCell>
        <mxCell id="oY7AbEXCepCv40pV6vN1-104" value="Notification" style="rounded=0;whiteSpace=wrap;html=1;fontSize=16;" parent="1" vertex="1">
          <mxGeometry x="1220" y="1810" width="200" height="100" as="geometry" />
        </mxCell>
        <mxCell id="oY7AbEXCepCv40pV6vN1-107" value="" style="edgeStyle=orthogonalEdgeStyle;rounded=0;orthogonalLoop=1;jettySize=auto;html=1;endArrow=none;endFill=0;startArrow=classic;startFill=1;" parent="1" edge="1">
          <mxGeometry relative="1" as="geometry">
            <mxPoint x="1420" y="1720" as="sourcePoint" />
            <mxPoint x="1500" y="1720" as="targetPoint" />
          </mxGeometry>
        </mxCell>
        <mxCell id="oY7AbEXCepCv40pV6vN1-108" value="" style="edgeStyle=orthogonalEdgeStyle;rounded=0;orthogonalLoop=1;jettySize=auto;html=1;" parent="1" edge="1">
          <mxGeometry relative="1" as="geometry">
            <mxPoint x="1699.9999999999995" y="1699.82" as="sourcePoint" />
            <mxPoint x="1780.0000000000005" y="1699.82" as="targetPoint" />
          </mxGeometry>
        </mxCell>
        <mxCell id="oY7AbEXCepCv40pV6vN1-109" value="" style="edgeStyle=orthogonalEdgeStyle;rounded=0;orthogonalLoop=1;jettySize=auto;html=1;" parent="1" edge="1">
          <mxGeometry relative="1" as="geometry">
            <mxPoint x="1319.83" y="1910" as="sourcePoint" />
            <mxPoint x="1319.83" y="1970" as="targetPoint" />
          </mxGeometry>
        </mxCell>
        <mxCell id="oY7AbEXCepCv40pV6vN1-110" value="Level 3" style="text;html=1;align=center;verticalAlign=middle;whiteSpace=wrap;rounded=0;fontSize=30;fontStyle=1" parent="1" vertex="1">
          <mxGeometry x="525" y="1480" width="105" height="30" as="geometry" />
        </mxCell>
        <mxCell id="oY7AbEXCepCv40pV6vN1-113" value="API Gateway" style="rounded=0;whiteSpace=wrap;html=1;fontSize=16;" parent="1" vertex="1">
          <mxGeometry x="-60" y="2200" width="200" height="100" as="geometry" />
        </mxCell>
        <mxCell id="oY7AbEXCepCv40pV6vN1-117" value="" style="endArrow=classic;html=1;rounded=0;entryX=0;entryY=0.5;entryDx=0;entryDy=0;" parent="1" edge="1">
          <mxGeometry width="50" height="50" relative="1" as="geometry">
            <mxPoint x="-140" y="2250.07" as="sourcePoint" />
            <mxPoint x="-60" y="2249.8700000000003" as="targetPoint" />
            <Array as="points">
              <mxPoint x="-120" y="2249.8700000000003" />
            </Array>
          </mxGeometry>
        </mxCell>
        <mxCell id="oY7AbEXCepCv40pV6vN1-129" value="" style="edgeStyle=orthogonalEdgeStyle;rounded=0;orthogonalLoop=1;jettySize=auto;html=1;" parent="1" source="oY7AbEXCepCv40pV6vN1-120" target="oY7AbEXCepCv40pV6vN1-128" edge="1">
          <mxGeometry relative="1" as="geometry" />
        </mxCell>
        <mxCell id="oY7AbEXCepCv40pV6vN1-120" value="Data handler" style="rounded=0;whiteSpace=wrap;html=1;fontSize=16;" parent="1" vertex="1">
          <mxGeometry x="500" y="2200" width="200" height="100" as="geometry" />
        </mxCell>
        <mxCell id="oY7AbEXCepCv40pV6vN1-123" value="" style="endArrow=classic;html=1;rounded=0;entryX=0;entryY=0.5;entryDx=0;entryDy=0;" parent="1" edge="1">
          <mxGeometry width="50" height="50" relative="1" as="geometry">
            <mxPoint x="140" y="2250.07" as="sourcePoint" />
            <mxPoint x="220" y="2249.8700000000003" as="targetPoint" />
            <Array as="points">
              <mxPoint x="160" y="2249.8700000000003" />
            </Array>
          </mxGeometry>
        </mxCell>
        <mxCell id="oY7AbEXCepCv40pV6vN1-127" value="" style="edgeStyle=orthogonalEdgeStyle;rounded=0;orthogonalLoop=1;jettySize=auto;html=1;" parent="1" edge="1">
          <mxGeometry relative="1" as="geometry">
            <mxPoint x="640.0000000000001" y="2360" as="sourcePoint" />
            <mxPoint x="640.0000000000001" y="2300" as="targetPoint" />
          </mxGeometry>
        </mxCell>
        <mxCell id="oY7AbEXCepCv40pV6vN1-128" value="Response" style="rounded=0;whiteSpace=wrap;html=1;fontSize=16;" parent="1" vertex="1">
          <mxGeometry x="780" y="2200" width="200" height="100" as="geometry" />
        </mxCell>
        <mxCell id="oY7AbEXCepCv40pV6vN1-133" value="" style="edgeStyle=orthogonalEdgeStyle;rounded=0;orthogonalLoop=1;jettySize=auto;html=1;" parent="1" source="oY7AbEXCepCv40pV6vN1-132" target="oY7AbEXCepCv40pV6vN1-120" edge="1">
          <mxGeometry relative="1" as="geometry" />
        </mxCell>
        <mxCell id="oY7AbEXCepCv40pV6vN1-132" value="Authentication" style="rounded=0;whiteSpace=wrap;html=1;fontSize=16;" parent="1" vertex="1">
          <mxGeometry x="220" y="2200" width="200" height="100" as="geometry" />
        </mxCell>
        <mxCell id="oY7AbEXCepCv40pV6vN1-134" value="" style="edgeStyle=orthogonalEdgeStyle;rounded=0;orthogonalLoop=1;jettySize=auto;html=1;" parent="1" edge="1">
          <mxGeometry relative="1" as="geometry">
            <mxPoint x="980" y="2249.7" as="sourcePoint" />
            <mxPoint x="1060" y="2249.7" as="targetPoint" />
          </mxGeometry>
        </mxCell>
        <mxCell id="oY7AbEXCepCv40pV6vN1-135" value="Level 4" style="text;html=1;align=center;verticalAlign=middle;whiteSpace=wrap;rounded=0;fontSize=30;fontStyle=1" parent="1" vertex="1">
          <mxGeometry x="-60" y="2090" width="105" height="30" as="geometry" />
        </mxCell>
        <mxCell id="EfRPAqn-VJBuJBoE89wM-1" value="Database" style="rounded=0;whiteSpace=wrap;html=1;fontSize=16;" vertex="1" parent="1">
          <mxGeometry x="-60" y="2440" width="200" height="100" as="geometry" />
        </mxCell>
        <mxCell id="EfRPAqn-VJBuJBoE89wM-2" value="" style="edgeStyle=orthogonalEdgeStyle;rounded=0;orthogonalLoop=1;jettySize=auto;html=1;startArrow=classic;startFill=1;endArrow=none;endFill=0;" edge="1" parent="1">
          <mxGeometry relative="1" as="geometry">
            <mxPoint x="560" y="2360" as="sourcePoint" />
            <mxPoint x="560" y="2300" as="targetPoint" />
          </mxGeometry>
        </mxCell>
        <mxCell id="EfRPAqn-VJBuJBoE89wM-3" value="" style="edgeStyle=orthogonalEdgeStyle;rounded=0;orthogonalLoop=1;jettySize=auto;html=1;" edge="1" parent="1">
          <mxGeometry relative="1" as="geometry">
            <mxPoint x="619.8000000000001" y="1970" as="sourcePoint" />
            <mxPoint x="619.8000000000001" y="1910" as="targetPoint" />
          </mxGeometry>
        </mxCell>
      </root>
    </mxGraphModel>
  </diagram>
</mxfile>
